/* XPM */
static xpm_row_t const arrow_xpm[] = {
"100 100 6 1",
" 	c #000001",
".	c #000060",
"+	c #FFFFFF",
"@	c #F0F0F0",
"#	c #E7E7E7",
"$	c #E8E8E8",
"                                               ......                                               ",
"                                             ..........                                             ",
"                                           ..............                                           ",
"                                          ................                                          ",
"                                          ................                                          ",
"                                          ................                                          ",
"                                          ................                                          ",
"                                        ....................                                        ",
"                                       ......................                                       ",
"                                       ......................                                       ",
"                                       ......................                                       ",
"                                       ........++++++........                                       ",
"                                       .......++++++++.......                                       ",
"                                       .....++++++++++++.....                                       ",
"                                       .....++++++++++++.....                                       ",
"                                    ........++++++++++++........                                    ",
"                                    ........++++++++++++........                                    ",
"                                    .....++++++++++++++++++.....                                    ",
"                                    .....++++++++++++++++++.....                                    ",
"                                    .....++++++++++++++++++.....                                    ",
"                                    .....++++++++++++++++++.....                                    ",
"                                    .....++++++++++++++++++........                                 ",
"                                 ........++++++++++++++++++........                                 ",
"                                 ......++++++++++++++++++++++......                                 ",
"                                 ......++++++++++++++++++++++......                                 ",
"                                 ......++++++++++++++++++++++......                                 ",
"                                 ......++++++++++++++++++++++......                                 ",
"                                 ......++++++++++++++++++++++++....                                 ",
"                              .......++++++++++++++++++++++++++.......                              ",
"                             ........++++++++++++++++++++++++++........                             ",
"                             ........++++++++++++++++++++++++++........                             ",
"                             ........++++++++++++++++++++++++++........                             ",
"                             ........++++++++++++++++++++++++++........                             ",
"                             .....++++++++++++++++++++++++++++++++.....                             ",
"                             .....++++++++++++++++++++++++++++++++.....                             ",
"                             .....++++++++++++++++++++++++++++++++.....                             ",
"                           .......++++++++++++++++++++++++++++++++.......                           ",
"                           .......++++++++++++++++++++++++++++++++.......                           ",
"                           ......++++++++++++++++++++++++++++++++++......                           ",
"                           .....++++++++++++++++++++++++++++++++++++.....                           ",
"                           .....++++++++++++++++++++++++++++++++++++.....                           ",
"                       .........++++++++++++++++++++++++++++++++++++.........                       ",
"                       ......++++++++++++++++++++++++++++++++++++++++++......                       ",
"                       ......++++++++++++++++++++++++++++++++++++++++++......                       ",
"                       ......++++++++++++++++++++++++++++++++++++++++++......                       ",
"                       ......++++++++++++++++++++++++++++++++++++++++++......                       ",
"                       ......++++++++++++++++++++++++++++++++++++++++++......                       ",
"                       ......++++++++++++++++++++++++++++++++++++++++++......                       ",
"                       ......++++++++++++++++++++++++++++++++++++++++++......                       ",
"                       ......++++++++++++++++++++++++++++++++++++++++++......                       ",
"                       ......++++++++++++++++++++++++++++++++++++++++++......                       ",
"                       ......++++++++++++++++++++++++++++++++++++++++++......                       ",
"                       ......++++++++++++++++++++++++++++++++++++++++++......                       ",
"                       ......................++++++++++......................                       ",
"                       ......................++++++++++......................                       ",
"                       ......................++++++++++......................                       ",
"                       ......................++++++++++......................                       ",
"                                          ...++++++++++...                                          ",
"                                          ...++++++++++...                                          ",
"                                          ...++++++++++...                                          ",
"                                          ...++++++++++...                                          ",
"                                          ...++++++++++...                                          ",
"                                          ...++++++++++...                                          ",
"                                          ...++++++++++...                                          ",
"                                          ...++++++++++...                                          ",
"                                          ...++++++++++...                                          ",
"                                          ...++++++++++...                                          ",
"                                          ...++++++++++...                                          ",
"                                          ...++++++++++...                                          ",
"                                          ...++++++++++...                                          ",
"                                          ...++++++++++...                                          ",
"                                          ...++++++++++...                                          ",
"                                          ...++++++++++...                                          ",
"                                          ...++++++++++...                                          ",
"                                          ...++++++++++...                                          ",
"                                          ...++++++++++...                                          ",
"                                          ...++++++++++...                                          ",
"                                          ...++++++++++...                                          ",
"                                          ...++++++++++...                                          ",
"                                          ...++++++++++...                                          ",
"                                          ...++++++++++...                                          ",
"                                          ...++++++++++...                                          ",
"                                          ...++++++++++...                                          ",
"                                          ....++++++++....                                          ",
"                                          ................                                          ",
"                                          ................                                          ",
"                                          ................                                          ",
"                                          ................                                          ",
"                                          ................                                          ",
"                                                                                                    ",
"                                                                                                    ",
"                                                                                                    ",
"                                                                                                    ",
"                                                                                                    ",
"                                                                                                    ",
"                                                                                                    ",
"                                                                                                    ",
"                                                                                                    ",
"                                                                                                    ",
"                                                                                                    "};
