/* XPM */
static xpm_row_t const cursor_xpm[] = {
"48 79 2 1",
" 	c None",
".	c #FFFFFF",
".                                               ",
"..                                              ",
"...                                             ",
"....                                            ",
".....                                           ",
"......                                          ",
".......                                         ",
"........                                        ",
".........                                       ",
"..........                                      ",
"...........                                     ",
"............                                    ",
".............                                   ",
"..............                                  ",
"...............                                 ",
"................                                ",
".................                               ",
"..................                              ",
"...................                             ",
"....................                            ",
".....................                           ",
"......................                          ",
".......................                         ",
"........................                        ",
".........................                       ",
"..........................                      ",
"...........................                     ",
"............................                    ",
".............................                   ",
"..............................                  ",
"...............................                 ",
"................................                ",
".................................               ",
".................................               ",
"...................................             ",
"...................................             ",
".....................................           ",
"......................................          ",
".......................................         ",
"........................................        ",
".........................................       ",
"..........................................      ",
"...........................................     ",
"............................................    ",
"............................................    ",
"..............................................  ",
"..............................................  ",
"................................................",
"..........................                      ",
"..........................                      ",
"...........................                     ",
"...........................                     ",
"............................                    ",
"...............  ...........                    ",
"..............   ...........                    ",
".............    ............                   ",
"............      ...........                   ",
"...........       ............                  ",
"..........         ...........                  ",
".........          ...........                  ",
"........           ............                 ",
".......             ...........                 ",
"......              ............                ",
".....                ...........                ",
"....                 ...........                ",
"...                  ............               ",
"..                    ...........               ",
".                     ............              ",
"                       ...........              ",
"                       ............             ",
"                        ...........             ",
"                        ...........             ",
"                        ............            ",
"                         ...........            ",
"                         ............           ",
"                          ..........            ",
"                          .......               ",
"                          .....                 ",
"                           .                    "};

