/* XPM */
static xpm_row_t const hand[] = {
"50 50 17 1",
" 	c #000001",
".	c #000000",
"+	c #0C100D",
"@	c #000060",
"#	c #0A0D0B",
"$	c #0C100C",
"%	c #28402B",
"&	c #FFFFFF",
"*	c #0B0D0B",
"=	c #8A8A8A",
"-	c #DEDEDE",
";	c #AFAFAF",
">	c #909090",
",	c #0D120D",
"'	c #0C110D",
")	c #131D14",
"!	c #0E140E",
"                                                  ",
"                      ......                      ",
"                     +@@@@@@#                     ",
"                     $@@@@@@@                     ",
"          ....... %@@@&&&&&&@........             ",
"          @@@@@@@ #@@@&&&&&&@@@@@@@@@             ",
"          @@@@@@@ *@@@&&&&&&@@@@@@@@@             ",
"       .@@@&&&&&&@@@@@&&&&&&@@&&&&&&&@@@          ",
"       .@@&&&&&&&@@@@@&&&&&&@@&&&&&&&@@@          ",
"       .@@&&&&&&&@@@@@&&&&&&@@&&&&&&&@@@          ",
"       .@@&&&&&&&@@@@@&&&&&&@@&&&&&&&@@@ .....    ",
"       .@@&&&&&&&@@@@@&&&&&&@@&&&&&&&@@@ @@@@@    ",
"       .@@&&&&&&&@@@@@&&&&&&@@&&&&&&&@@@ @@@@@    ",
"       .@@@@@&&&&&&@@@&&&&&&@@&&&&&&&@@@@@&&&@@.* ",
"          @@@@&&&&&@@@&&&&&&@@&&&&&&&@@@@@&&&@@.. ",
"          ..@@&&&&&@@@&&&&&&@@&&&&&&&@@@@@&&&@@.. ",
"          ..@@&&&&&@@@&&&&&&@@&&&&&&&@@&&&&&&@@.. ",
"          ..@@&&&&&@@@&&&&&&@@&&&&&&&@@&&&&&&@@.. ",
"          ..@@&&&&&@@@&&&&&&@@&&&&&&&@@&&&&&&@@.. ",
"    ......=--;@@&&&&&&&&&&&&&&&&&&&&&@@&&&&&&@@.. ",
"    @@@@@@>&&;@@&&&&&&&&&&&&&&&&&&&&&@@&&&&&&@@.. ",
"  ,'@@@@@@>&&;@@&&&&&&&&&&&&&&&&&&&&&@@&&&&&&@@.. ",
" ..@@&&&&&@@@@@@&&&&&&&&&&&&&&&&&&&&&&&&&&&&&@@.. ",
" ..@@&&&&&@@@@@@&&&&&&&&&&&&&&&&&&&&&&&&&&&&&@@.. ",
" ..@@&&&&&@@@@@@&&&&&&&&&&&&&&&&&&&&&&&&&&&&&@@.. ",
" ..@@&&&&&&&&&@@&&&&&&&&&&&&&&&&&&&&&&&&&&@@@@@.) ",
" ..@@&&&&&&&&&@@&&&&&&&&&&&&&&&&&&&&&&&&&&@@@.    ",
" ..@@&&&&&&&&&&&&&&&&&&&&&&&&&&&&&&&&&&&&&@@@.    ",
"    @@@@&&&&&&&&&&&&&&&&&&&&&&&&&&&&&&&&&&@@@.    ",
"    @@@@&&&&&&&&&&&&&&&&&&&&&&&&&&&&&&&&&&@@@.    ",
"    @@@@&&&&&&&&&&&&&&&&&&&&&&&&&&&&&&&&&&@@@.    ",
"       @@@@&&&&&&&&&&&&&&&&&&&&&&&&&&&&&&&@@@.    ",
"       .@@@&&&&&&&&&&&&&&&&&&&&&&&&&&&&&&&@@@.    ",
"       .@@@&&&&&&&&&&&&&&&&&&&&&&&&&&&&@@@@@@.    ",
"       .@@@&&&&&&&&&&&&&&&&&&&&&&&&&&&&@@@.       ",
"       .@@@&&&&&&&&&&&&&&&&&&&&&&&&&&&&@@@.       ",
"       .@@@@@&&&&&&&&&&&&&&&&&&&&&&&&&&@@@.       ",
"          .@@@&&&&&&&&&&&&&&&&&&&&&&&&&@@@.       ",
"          .@@@&&&&&&&&&&&&&&&&&&&&&&&&&@@@.       ",
"          .@@@@@&&&&&&&&&&&&&&&&&&&&&@@@@@.       ",
"             @@@&&&&&&&&&&&&&&&&&&&&&@@@          ",
"             @@@&&&&&&&&&&&&&&&&&&&&&@@@          ",
"             @@@@@@&&&&&&&&&&&&&&&&&&@@@          ",
"                @@@&&&&&&&&&&&&&&&&&&@@@          ",
"                @@@&&&&&&&&&&&&&&&&&&@@@          ",
"                @@@&&&&&&&&&&&&&&&&&&@@@          ",
"                @@@@@@@@@@@@@@@@@@@@@@@@          ",
"                @@@@@@@@@@@@@@@@@@@@@@@@          ",
"                 ......................!          ",
"                                                  "};
