/* XPM */
static xpm_row_t const h_arrow[] = {
/* columns rows colors chars-per-pixel */
"100 100 4 1 ",
"  c #000001",
". c #000060",
"X c #F0F0F0",
"o c #FFFFFF",
/* pixels */
"                                                                                                    ",
"                                                                                                    ",
"                                                                                                    ",
"                                                                                                    ",
"                                                                                                    ",
"                                                                                                    ",
"                                                                                                    ",
"                                                                                                    ",
"                                                                                                    ",
"                                                                                                    ",
"                                                                                                    ",
"                                                                                                    ",
"                                                                                                    ",
"                                                                                                    ",
"                                                                                                    ",
"                                                                                                    ",
"                                                                                                    ",
"                                                                                                    ",
"                                                                                                    ",
"                                                                                                    ",
"                                                                                                    ",
"                                                                                                    ",
"                                                                                                    ",
"                                           ................                                         ",
"                                           ................                                         ",
"                                           ................                                         ",
"                                           ................                                         ",
"                                           .....................                                    ",
"                                           .....................                                    ",
"                                           ....ooooooooooo.............                             ",
"                                           ....ooooooooooo..............                            ",
"                                           ....ooooooooooo..............                            ",
"                                           ....oooooooooooooo...........                            ",
"                                           ....ooooooooooooooo................                      ",
"                                           ....oooooooooooooooooooo...........                      ",
"                                           ....oooooooooooooooooooo...........                      ",
"                                           ....oooooooooooooooooooo..................               ",
"                                           ....ooooooooooooooooooooooooo.............               ",
"                                           ....ooooooooooooooooooooooooo.............               ",
"                                           ....oooooooooooooooooooooooooooooo...............        ",
"                                           ....oooooooooooooooooooooooooooooo................       ",
"                                           ....oooooooooooooooooooooooooooooooooooo..........       ",
"           ....................................oooooooooooooooooooooooooooooooooooo..............   ",
"           ....................................oooooooooooooooooooooooooooooooooooo...............  ",
"           ....................................oooooooooooooooooooooooooooooooooooooooo...........  ",
"           ......oooooooooooooooooooooooooooooooooooooooooooooooooooooooooooooooooooooo............ ",
"           .....oooooooooooooooooooooooooooooooooooooooooooooooooooooooooooooooooooooooo........... ",
"           .....ooooooooooooooooooooooooooooooooooooooooooooooooooooooooooooooooooooooooo...........",
"           .....ooooooooooooooooooooooooooooooooooooooooooooooooooooooooooooooooooooooooo...........",
"           .....ooooooooooooooooooooooooooooooooooooooooooooooooooooooooooooooooooooooooo...........",
"           .....ooooooooooooooooooooooooooooooooooooooooooooooooooooooooooooooooooooooooo...........",
"           .....ooooooooooooooooooooooooooooooooooooooooooooooooooooooooooooooooooooooooo...........",
"           .....ooooooooooooooooooooooooooooooooooooooooooooooooooooooooooooooooooooooooo...........",
"           .....oooooooooooooooooooooooooooooooooooooooooooooooooooooooooooooooooooooooo........... ",
"           ......oooooooooooooooooooooooooooooooooooooooooooooooooooooooooooooooooooooo............ ",
"           ....................................oooooooooooooooooooooooooooooooooooooooo...........  ",
"           ....................................oooooooooooooooooooooooooooooooooooo...............  ",
"           ....................................oooooooooooooooooooooooooooooooooooo..............   ",
"                                           ....oooooooooooooooooooooooooooooooooooo..........       ",
"                                           ....oooooooooooooooooooooooooooooo................       ",
"                                           ....oooooooooooooooooooooooooooooo...............        ",
"                                           ....oooooooooooooooooooooooooo............               ",
"                                           ....oooooooooooooooooooooooooo............               ",
"                                           ....oooooooooooooooooooo..................               ",
"                                           ....oooooooooooooooooooo............                     ",
"                                           ....oooooooooooooooooooo............                     ",
"                                           ....ooooooooooooooo.................                     ",
"                                           ....oooooooooooooo...........                            ",
"                                           ....ooooooooooo..............                            ",
"                                           ....ooooooooooo..............                            ",
"                                           ....Xoooooooooo.............                             ",
"                                           .....................                                    ",
"                                           .....................                                    ",
"                                           ................                                         ",
"                                           ................                                         ",
"                                           ................                                         ",
"                                           ................                                         ",
"                                                                                                    ",
"                                                                                                    ",
"                                                                                                    ",
"                                                                                                    ",
"                                                                                                    ",
"                                                                                                    ",
"                                                                                                    ",
"                                                                                                    ",
"                                                                                                    ",
"                                                                                                    ",
"                                                                                                    ",
"                                                                                                    ",
"                                                                                                    ",
"                                                                                                    ",
"                                                                                                    ",
"                                                                                                    ",
"                                                                                                    ",
"                                                                                                    ",
"                                                                                                    ",
"                                                                                                    ",
"                                                                                                    ",
"                                                                                                    ",
"                                                                                                    "
};
