/* XPM */
static xpm_row_t const love_button_green[] = {
"149 120 9 1",
" 	c #000001",
".	c #79F20F",
"+	c #78BB00",
"@	c #363736",
"#	c #FE0000",
"$	c #FFFAFA",
"%	c #FFFDFD",
"&	c #FFFFFF",
"*	c #AB79A0",
"                                                                                                                                                     ",
"                                                                                                                                                     ",
"                                                                                                                                                     ",
"                                                                                                                                                     ",
"                                                                                                                                                     ",
"                                                                                                                                                     ",
"                                                                                                                                                     ",
"                                                                                                                                                     ",
"                                                                                                                                                     ",
"                  ..............................................................................................+++++++++++++++++++                  ",
"                  ..............................................................................................+++++++++++++++++++                  ",
"                  ..............................................................................................+++++++++++++++++++                  ",
"                  ..............................................................................................+++++++++++++++++++                  ",
"                  ..............................................................................................+++++++++++++++++++                  ",
"                  ..............................................................................................+++++++++++++++++++                  ",
"                  ..............................................................................................+++++++++++++++++++                  ",
"                  ...........................................................................................++++++++++++++++++++++                  ",
"                  ...........................................................................................++++++++++++++++++++++                  ",
"         ....................................................................................................+++++++++++++++++++++++++++++++         ",
"         ....................................................................................................+++++++++++++++++++++++++++++++         ",
"         ....................................................................................................+++++++++++++++++++++++++++++++         ",
"         ....................................................................................................+++++++++++++++++++++++++++++++         ",
"         ....................................................................................................+++++++++++++++++++++++++++++++         ",
"         ..............................................................................................+++++++++++++++++++++++++++++++++++++         ",
"         ..............................................................................................+++++++++++++++++++++++++++++++++++++         ",
"         ..............................................................................................+++++++++++++++++++++++++++++++++++++         ",
"         ..............................................................................................+++++++++++++++++++++++++++++++++++++         ",
"         ..............................................................................................+++++++++++++++++++++++++++++++++++++         ",
"         ..............................................................................................+++++++++++++++++++++++++++++++++++++         ",
"         ..............................................................................................+++++++++++++++++++++++++++++++++++++         ",
"         .......................................@@@@@@@@@@@@@@@@@@...............@@@@@@@@@@@@@@@@@@+++++++++++++++++++++++++++++++++++++++++         ",
"         .......................................@@@@@@@@@@@@@@@@@@...............@@@@@@@@@@@@@@@@@@+++++++++++++++++++++++++++++++++++++++++         ",
"         .......................................@@@@@@@@@@@@@@@@@@...............@@@@@@@@@@@@@@@@@@+++++++++++++++++++++++++++++++++++++++++         ",
"         .......................................@@@@@@@@@@@@@@@@@@...............@@@@@@@@@@@@@@@@@@+++++++++++++++++++++++++++++++++++++++++         ",
"         ..................................@@@@@##################@@@@@@....@@@@@##################@@@@@++++++++++++++++++++++++++++++++++++         ",
"         ..................................@@@@@##################@@@@@@....@@@@@##################@@@@@++++++++++++++++++++++++++++++++++++         ",
"         ..................................@@@@@##################@@@@@@....@@@@@##################@@@@@++++++++++++++++++++++++++++++++++++         ",
"         ..................................@@@@@##################@@@@@@....@@@@@##################@@@@@++++++++++++++++++++++++++++++++++++         ",
"         ..................................@@@@@#####$%%%#########@@@@@@....@@@@@##################@@@@@++++++++++++++++++++++++++++++++++++         ",
"         ..............................@@@@##########&&&&###############@@@@############################@@@@@+++++++++++++++++++++++++++++++         ",
"         ..............................@@@@##########&&&&###############@@@@############################@@@@@+++++++++++++++++++++++++++++++         ",
"         ..............................@@@@##########&&&&###############@@@@############################@@@@@+++++++++++++++++++++++++++++++         ",
"         ..............................@@@@##########&&&&###############@@@@############################@@@@@+++++++++++++++++++++++++++++++         ",
"         ..............................@@@@######%%%%###################################################@@@@@+++++++++++++++++++++++++++++++         ",
"         ..............................@@@@######&&&&###################################################@@@@@+++++++++++++++++++++++++++++++         ",
"         ..............................@@@@######&&&&###################################################@@@@@+++++++++++++++++++++++++++++++         ",
"         ..............................@@@@######&&&&###################################################@@@@@+++++++++++++++++++++++++++++++         ",
"         ..............................@@@@######&&&&###################################################@@@@@+++++++++++++++++++++++++++++++         ",
"         ..............................@@@@######&&&&###################################################@@@@@+++++++++++++++++++++++++++++++         ",
"         ..............................@@@@######&&&&###################################################@@@@@+++++++++++++++++++++++++++++++         ",
"         ..............................@@@@######&&&&###################################################@@@@@+++++++++++++++++++++++++++++++         ",
"         ..............................@@@@######&&&&###################################################@@@@@+++++++++++++++++++++++++++++++         ",
"         ..............................@@@@########################################################@@@@@++++++++++++++++++++++++++++++++++++         ",
"         ..................................@@@@@###################################################@@@@@++++++++++++++++++++++++++++++++++++         ",
"         ..................................@@@@@###################################################@@@@@++++++++++++++++++++++++++++++++++++         ",
"         ..................................@@@@@###################################################@@@@@++++++++++++++++++++++++++++++++++++         ",
"         ..................................@@@@@###################################################@@@@@++++++++++++++++++++++++++++++++++++         ",
"         ..................................@@@@@###################################################@@@@@++++++++++++++++++++++++++++++++++++         ",
"         ..................................@@@@@###################################################@@@@@++++++++++++++++++++++++++++++++++++         ",
"         ..................................@@@@@###################################################@@@@@++++++++++++++++++++++++++++++++++++         ",
"         ..................................@@@@@###################################################@@@@@++++++++++++++++++++++++++++++++++++         ",
"         ..................................@@@@@###################################################@@@@@++++++++++++++++++++++++++++++++++++         ",
"         .......................................@@@@@#########################################@@@@@+++++++++++++++++++++++++++++++++++++++++         ",
"         .......................................@@@@@#########################################@@@@@+++++++++++++++++++++++++++++++++++++++++         ",
"         .......................................@@@@@#########################################@@@@@+++++++++++++++++++++++++++++++++++++++++         ",
"         .......................................@@@@@#########################################@@@@@+++++++++++++++++++++++++++++++++++++++++         ",
"         ............................................@@@@@################################@@@@++++++++++++++++++++++++++++++++++++++++++++++         ",
"         ............................................@@@@@################################@@@@++++++++++++++++++++++++++++++++++++++++++++++         ",
"         ............................................@@@@@################################@@@@++++++++++++++++++++++++++++++++++++++++++++++         ",
"         ............................................@@@@@################################@@@@++++++++++++++++++++++++++++++++++++++++++++++         ",
"         ............................................@@@@@################################@@@@++++++++++++++++++++++++++++++++++++++++++++++         ",
"         .................................................@@@@#######################@@@@@++++++++++++++++++++++++++++++++++++++++++++++++++         ",
"         ................................................+@@@@#######################@@@@@++++++++++++++++++++++++++++++++++++++++++++++++++         ",
"         ................................................+@@@@#######################@@@@@++++++++++++++++++++++++++++++++++++++++++++++++++         ",
"         .......................................++++++++++@@@@#######################@@@@@++++++++++++++++++++++++++++++++++++++++++++++++++         ",
"         .......................................++++++++++@@@@#######################@@@@@++++++++++++++++++++++++++++++++++++++++++++++++++         ",
"         .......................................++++++++++++++@@@@@#############@@@@@+++++++++++++++++++++++++++++++++++++++++++++++++++++++         ",
"         .......................................++++++++++++++@@@@@#############@@@@@+++++++++++++++++++++++++++++++++++++++++++++++++++++++         ",
"         .......................................++++++++++++++@@@@@#############@@@@@+++++++++++++++++++++++++++++++++++++++++++++++++++++++         ",
"         ..............................+++++++++++++++++++++++@@@@@#############@@@@@+++++++++++++++++++++++++++++++++++++++++++++++++++++++         ",
"         ..............................++++++++++++++++++++++++++++@@@@@####@@@@++++++++++++++++++++++++++++++++++++++++++++++++++++++++++++         ",
"         ..............................++++++++++++++++++++++++++++@@@@@####@@@@++++++++++++++++++++++++++++++++++++++++++++++++++++++++++++         ",
"         ..............................++++++++++++++++++++++++++++@@@@@####@@@@++++++++++++++++++++++++++++++++++++++++++++++++++++++++++++         ",
"         ..............................++++++++++++++++++++++++++++@@@@@####@@@@++++++++++++++++++++++++++++++++++++++++++++++++++++++++++++         ",
"         ..............................++++++++++++++++++++++++++++@@@@@####@@@@++++++++++++++++++++++++++++++++++++++++++++++++++++++++++++         ",
"         ..............................+++++++++++++++++++++++++++++++++@@@@++++++++++++++++++++++++++++++++++++++++++++++++++++++++++++++++         ",
"         ..............................+++++++++++++++++++++++++++++++++@@@@++++++++++++++++++++++++++++++++++++++++++++++++++++++++++++++++         ",
"         ........................+++++++++++++++++++++++++++++++++++++++@@@@++++++++++++++++++++++++++++++++++++++++++++++++++++++++++++++++         ",
"         ........................+++++++++++++++++++++++++++++++++++++++@@@@++++++++++++++++++++++++++++++++++++++++++++++++++++++++++++++++         ",
"         ........................+++++++++++++++++++++++++++++++++++++++++++++++++++++++++++++++++++++++++++++++++++++++++++++++++++++++++++         ",
"         ........................+++++++++++++++++++++++++++++++++++++++++++++++++++++++++++++++++++++++++++++++++++++++++++++++++++++++++++         ",
"         ........................+++++++++++++++++++++++++++++++++++++++++++++++++++++++++++++++++++++++++++++++++++++++++++++++++++++++++++         ",
"         ........................+++++++++++++++++++++++++++++++++++++++++++++++++++++++++++++++++++++++++++++++++++++++++++++++++++++++++++         ",
"         ........................+++++++++++++++++++++++++++++++++++++++++++++++++++++++++++++++++++++++++++++++++++++++++++++++++++++++++++         ",
"         ........................+++++++++++++++++++++++++++++++++++++++++++++++++++++++++++++++++++++++++++++++++++++++++++++++++++++++++++         ",
"         .................++++++++++++++++++++++++++++++++++++++++++++++++++++++++++++++++++++++++++++++++++++++++++++++++++++++++++++++++++         ",
"         .................++++++++++++++++++++++++++++++++++++++++++++++++++++++++++++++++++++++++++++++++++++++++++++++++++++++++++++++++++         ",
"         .................++++++++++++++++++++++++++++++++++++++++++++++++++++++++++++++++++++++++++++++++++++++++++++++++++++++++++++++++++         ",
"         .................++++++++++++++++++++++++++++++++++++++++++++++++++++++++++++++++++++++++++++++++++++++++++++++++++++++++++++++++++         ",
"         .................++++++++++++++++++++++++++++++++++++++++++++++++++++++++++++++++++++++++++++++++++++++++++++++++++++++++++++++++++         ",
"         ............+++++++++++++++++++++++++++++++++++++++++++++++++++++++++++++++++++++++++++++++++++++++++++++++++++++++++++++++++++++++         ",
"         *++++++++++++++++++++++++++++++++++++++++++++++++++++++++++++++++++++++++++++++++++++++++++++++++++++++++++++++++++++++++++++++++++         ",
"                  +++++++++++++++++++++++++++++++++++++++++++++++++++++++++++++++++++++++++++++++++++++++++++++++++++++++++++++++++                  ",
"                  +++++++++++++++++++++++++++++++++++++++++++++++++++++++++++++++++++++++++++++++++++++++++++++++++++++++++++++++++                  ",
"                  +++++++++++++++++++++++++++++++++++++++++++++++++++++++++++++++++++++++++++++++++++++++++++++++++++++++++++++++++                  ",
"                  +++++++++++++++++++++++++++++++++++++++++++++++++++++++++++++++++++++++++++++++++++++++++++++++++++++++++++++++++                  ",
"                  +++++++++++++++++++++++++++++++++++++++++++++++++++++++++++++++++++++++++++++++++++++++++++++++++++++++++++++++++                  ",
"                  +++++++++++++++++++++++++++++++++++++++++++++++++++++++++++++++++++++++++++++++++++++++++++++++++++++++++++++++++                  ",
"                  +++++++++++++++++++++++++++++++++++++++++++++++++++++++++++++++++++++++++++++++++++++++++++++++++++++++++++++++++                  ",
"                  +++++++++++++++++++++++++++++++++++++++++++++++++++++++++++++++++++++++++++++++++++++++++++++++++++++++++++++++++                  ",
"                  +++++++++++++++++++++++++++++++++++++++++++++++++++++++++++++++++++++++++++++++++++++++++++++++++++++++++++++++++                  ",
"                                                                                                                                                     ",
"                                                                                                                                                     ",
"                                                                                                                                                     ",
"                                                                                                                                                     ",
"                                                                                                                                                     ",
"                                                                                                                                                     ",
"                                                                                                                                                     ",
"                                                                                                                                                     ",
"                                                                                                                                                     "};
