/* XPM */
static xpm_row_t const mouse_xpm[] = {
"27 43 24 1",
" 	c #000060",
".	c #000001",
"+	c #444444",
"@	c #474747",
"#	c #E2A2D4",
"$	c #393939",
"%	c #303030",
"&	c #464646",
"*	c #858585",
"=	c #787878",
"-	c #666666",
";	c #383838",
">	c #414141",
",	c #3B3B3B",
"'	c #3C3C3C",
")	c #3D3D3D",
"!	c #363636",
"~	c #3A3A3A",
"{	c #878787",
"]	c #BEBEBE",
"^	c #BCBCBC",
"/	c #BBBBBB",
"(	c #7B7B7B",
"_	c #7E7E7E",
"    .......................",
"    +@.....................",
"      .....................",
"  ##   ....................",
"  ##    ...................",
"  ####   $.................",
"  ####    .................",
"  ######   ................",
"  ######   ................",
"  ########  ...............",
"  ########    .............",
"  ##########   %...........",
"  ##########    ...........",
"  ############   ..........",
"  ############    .........",
"  ##############   &.......",
"  ##############   +.......",
"  ################   *.....",
"  ################   =-....",
"  ##################  .....",
"  ##################  ..;..",
"  ############        .....",
"  ############        .....",
"  ############   ..........",
"  ############   ..........",
"  ####   #####   ..........",
"  ####   #######   >.......",
"  ##       #####   ,.......",
"  ##  ...  #####   '.......",
"      ...  #####   ).......",
"    !~...  #######   {.....",
"..........   #####   *.....",
"..........   #####   *.....",
"..........   #####   *.....",
"..........   #######   ]...",
"............   #####   ^...",
"............   #####   ^...",
"............   #####   /...",
"............         (_....",
".............        *.....",
"...........................",
"...........................",
"..........................."};
