/* XPM */
static xpm_row_t const sleep_button_yellow[] = {
"149 120 17 1",
" 	c #000001",
".	c #F1F20F",
"+	c #F6BB00",
"@	c #393A39",
"#	c #868686",
"$	c #818181",
"%	c #838383",
"&	c #4A4A4A",
"*	c #F8F8F8",
"=	c #65CBFE",
"-	c #47ADE0",
";	c #298FC2",
">	c #454545",
",	c #A4A4A4",
"'	c #83E9FE",
")	c #7EE3FE",
"!	c #AB79A0",
"                                                                                                                                                     ",
"                                                                                                                                                     ",
"                                                                                                                                                     ",
"                                                                                                                                                     ",
"                                                                                                                                                     ",
"                                                                                                                                                     ",
"                                                                                                                                                     ",
"                                                                                                                                                     ",
"                                                                                                                                                     ",
"                  ..............................................................................................+++++++++++++++++++                  ",
"                  ..............................................................................................+++++++++++++++++++                  ",
"                  ..............................................................................................+++++++++++++++++++                  ",
"                  ..............................................................................................+++++++++++++++++++                  ",
"                  ..............................................................................................+++++++++++++++++++                  ",
"                  ..............................................................................................+++++++++++++++++++                  ",
"                  ..............................................................................................+++++++++++++++++++                  ",
"                  ...........................................................................................++++++++++++++++++++++                  ",
"                  ...........................................................................................++++++++++++++++++++++                  ",
"         ....................................................................................................+++++++++++++++++++++++++++++++         ",
"         ....................................................................................................+++++++++++++++++++++++++++++++         ",
"         ....................................................................................................+++++++++++++++++++++++++++++++         ",
"         ....................................................................................................+++++++++++++++++++++++++++++++         ",
"         ....................................................................................................+++++++++++++++++++++++++++++++         ",
"         ..............................................................................................+++++++++++++++++++++++++++++++++++++         ",
"         ..............................................................................................+++++++++++++++++++++++++++++++++++++         ",
"         ..............................................................................................+++++++++++++++++++++++++++++++++++++         ",
"         ..............................................................................................+++++++++++++++++++++++++++++++++++++         ",
"         ..............................................................................................+++++++++++++++++++++++++++++++++++++         ",
"         ..............................................................................................+++++++++++++++++++++++++++++++++++++         ",
"         .............................@@@@@@@@@........................................................+++++++++++++++++++++++++++++++++++++         ",
"         .............................@@@@@@@@@..............................................+++++++++++++++++++++++++++++++++++++++++++++++         ",
"         .............................@@@@@@@@@..............................................+++++++++++++++++++++++++++++++++++++++++++++++         ",
"         .............................@#######@..............................................+++++++++++++++++++++++++++++++++++++++++++++++         ",
"         ..........................@@@#########@@@...........................................+++++++++++++++++++++++++++++++++++++++++++++++         ",
"         ..........................@@@#########@@@...........................................+++++++++++++++++++++++++++++++++++++++++++++++         ",
"         ..........................@@@#########@@@...........................................+++++++++++++++++++++++++++++++++++++++++++++++         ",
"         ..........................@@@#$$$%####@@@...........................................+++++++++++++++++++++++++++++++++++++++++++++++         ",
"         ..........................@@@&&&&&@@@@@@@@@@@@@@@@@@@@@@@@@@@@@@@@@@@@@@@@@@@@@@@@@@@@@@@@@@@@@@@@@@@@+++++++++++++++++++++++++++++         ",
"         ..........................@@@&&&&&@@@@@@@@@@@@@@@@@@@@@@@@@@@@@@@@@@@@@@@@@@@@@@@@@@@@@@@@@@@@@@@@@@@@+++++++++++++++++++++++++++++         ",
"         ..........................@@@&&&&&@@@@@@@@@@@@@@@@@@@@@@@@@@@@@@@@@@@@@@@@@@@@@@@@@@@@@@@@@@@@@@@@@@@@+++++++++++++++++++++++++++++         ",
"         ..........................@@@&&&&&@@@*********@@@@@@@@@@@@@@@@@@@@@@@@@@@@@@@@@@@@@@@@@@@@@@@@@@@@@@@@+++++++++++++++++++++++++++++         ",
"         ..........................@@@&&&&&@@@*********@@@=========================----------------------------@@@++++++++++++++++++++++++++         ",
"         ..........................@@@&&&&&@@@*********@@@=========================----------------------------@@@++++++++++++++++++++++++++         ",
"         ..........................@@@&&&&&@@@*********@@@=========================----------------------------@@@++++++++++++++++++++++++++         ",
"         ..........................@@@&&&&&@@@*********@@@=========================----------------------------@@@++++++++++++++++++++++++++         ",
"         ..........................@@@&&&&&@@@*********@@@=========================================----;;;-----@@@++++++++++++++++++++++++++         ",
"         ..........................@@@&&&&&@@@*********@@@=========================================----;;;-----@@@++++++++++++++++++++++++++         ",
"         ..........................@@@&&&&&@@@*********@@@=========================================----;;;-----@@@++++++++++++++++++++++++++         ",
"         ..........................@@@&>>>&@@@*********@@@=========================================------------@@@++++++++++++++++++++++++++         ",
"         ..........................@@@@@@@@@@@*********@@@=================================================----@@@++++++++++++++++++++++++++         ",
"         ..........................@@@@@@@@@@@*********@@@=================================================----@@@++++++++++++++++++++++++++         ",
"         ..........................@@@@@@@@@@@*********@@@=================================================----@@@++++++++++++++++++++++++++         ",
"         ..........................@@@@,,,,,,,*********@@@=================================================----@@@++++++++++++++++++++++++++         ",
"         ..........................@@@@,,,,,,,,@@@*****@@@=================================================----@@@++++++++++++++++++++++++++         ",
"         ..........................@@@@,,,,,,,,@@@*****@@@=================================================----@@@++++++++++++++++++++++++++         ",
"         ..........................@@@@,,,,,,,,@@@*****@@@=================================================----@@@++++++++++++++++++++++++++         ",
"         ..........................@@@@,,,,,,,,@@@*****====================================================----@@@++++++++++++++++++++++++++         ",
"         ..........................@@@@,,,,,,,,@@@@@@@-'''''''''''====================================='''=----@@@++++++++++++++++++++++++++         ",
"         ..........................@@@@,,,,,,,,@@@@@@@-'''''''''''====================================='''=----@@@++++++++++++++++++++++++++         ",
"         ..........................@@@@,,,,,,,,@@@@@@@-'''''''''''====================================='''=----@@@++++++++++++++++++++++++++         ",
"         ..........................@@@@,,,,,,,,@@@-----================================================)))=----@@@++++++++++++++++++++++++++         ",
"         ..........................@@@@,,,,,,,,@@@------------------------------------------------='''=====----@@@++++++++++++++++++++++++++         ",
"         ..........................@@@@,,,,,,,,@@@------------------------------------------------='''=====----@@@++++++++++++++++++++++++++         ",
"         ..........................@@@@,,,,,,,,@@@------------------------------------------------='''=====----@@@++++++++++++++++++++++++++         ",
"         ..........................@@@@,,,,,,,,@@@------------------------------------------------=========----@@@++++++++++++++++++++++++++         ",
"         ..........................@@@@,,,,,,,,@@@-----;;;;;;;;;;;-------------------------------------;;;-----@@@++++++++++++++++++++++++++         ",
"         ..........................@@@@,,,,,,,,@@@-----;;;;;;;;;;;-------------------------------------;;;-----@@@++++++++++++++++++++++++++         ",
"         ..........................@@@@,,,,,,,,@@@-----;;;;;;;;;;;-------------------------------------;;;-----@@@++++++++++++++++++++++++++         ",
"         ..........................@@@@,,,,,,,,@@@-----;;;;;;;;;;;;------------------------------------;;;-----@@@++++++++++++++++++++++++++         ",
"         ..........................@@@@,,,,,,,,@@@;;;;;;;;;@@@@@@@;--------;;;;@@@;;;;;;;;;;;;;@@@-----@@@@@@@@@@@++++++++++++++++++++++++++         ",
"         ..........................@@@@,,,,,,,,@@@;;;;;;;;;@@@@@@@;--------;;;;@@@;;;;;;;;;;;;;@@@-----@@@@@@@@@@@++++++++++++++++++++++++++         ",
"         ..........................@@@@,,,,,,,,@@@;;;;;;;;;@@@@@@@;--------;;;;@@@;;;;;;;;;;;;;@@@-----@@@@@@@@@@@++++++++++++++++++++++++++         ",
"         ..........................@@@@,,,,,,,,@@@;;;;;;;;;@@@@@@@;;;;----;;;;;@@@;;;;;;;;;;;;;@@@-----@@@@@@@@@@@++++++++++++++++++++++++++         ",
"         ..........................@@@@,,,,,,,,@@@@@@@@@@@@@@@@@@@@@@@@@@@@@@@@@@@@@@@@@@@@@@@@@@@@@@@@,,,,,,,@@@@++++++++++++++++++++++++++         ",
"         ..........................@@@@,,,,,,,,@@@@@@@@@@@@@@@@@@@@@@@@@@@@@@@@@@@@@@@@@@@@@@@@@@@@@@@@,,,,,,,@@@@++++++++++++++++++++++++++         ",
"         ..........................@@@@,,,,,,,,@@@@@@@@@@@@@@@@@@@@@@@@@@@@@@@@@@@@@@@@@@@@@@@@@@@@@@@@,,,,,,,@@@@++++++++++++++++++++++++++         ",
"         ..........................@@@@,,,,,,,,@@@@@@@@@@@@@@@@@@@@@@@@@@@@@@@@@@@@@@@@@@@@@@@@@@@@@@@@,,,,,,,@@@@++++++++++++++++++++++++++         ",
"         .............................@@@@@@@@@+++++++++++++++++++++++++++++++++++++++++++++++++++++++@@@@@@@@@+++++++++++++++++++++++++++++         ",
"         .............................@@@@@@@@@+++++++++++++++++++++++++++++++++++++++++++++++++++++++@@@@@@@@@+++++++++++++++++++++++++++++         ",
"         .............................@@@@@@@@@+++++++++++++++++++++++++++++++++++++++++++++++++++++++@@@@@@@@@+++++++++++++++++++++++++++++         ",
"         .............................@@@@@@@@@+++++++++++++++++++++++++++++++++++++++++++++++++++++++@@@@@@@@@+++++++++++++++++++++++++++++         ",
"         ..............................+++++++++++++++++++++++++++++++++++++++++++++++++++++++++++++++++++++++++++++++++++++++++++++++++++++         ",
"         ..............................+++++++++++++++++++++++++++++++++++++++++++++++++++++++++++++++++++++++++++++++++++++++++++++++++++++         ",
"         ..............................+++++++++++++++++++++++++++++++++++++++++++++++++++++++++++++++++++++++++++++++++++++++++++++++++++++         ",
"         ..............................+++++++++++++++++++++++++++++++++++++++++++++++++++++++++++++++++++++++++++++++++++++++++++++++++++++         ",
"         ..............................+++++++++++++++++++++++++++++++++++++++++++++++++++++++++++++++++++++++++++++++++++++++++++++++++++++         ",
"         ..............................+++++++++++++++++++++++++++++++++++++++++++++++++++++++++++++++++++++++++++++++++++++++++++++++++++++         ",
"         ........................+++++++++++++++++++++++++++++++++++++++++++++++++++++++++++++++++++++++++++++++++++++++++++++++++++++++++++         ",
"         ........................+++++++++++++++++++++++++++++++++++++++++++++++++++++++++++++++++++++++++++++++++++++++++++++++++++++++++++         ",
"         ........................+++++++++++++++++++++++++++++++++++++++++++++++++++++++++++++++++++++++++++++++++++++++++++++++++++++++++++         ",
"         ........................+++++++++++++++++++++++++++++++++++++++++++++++++++++++++++++++++++++++++++++++++++++++++++++++++++++++++++         ",
"         ........................+++++++++++++++++++++++++++++++++++++++++++++++++++++++++++++++++++++++++++++++++++++++++++++++++++++++++++         ",
"         ........................+++++++++++++++++++++++++++++++++++++++++++++++++++++++++++++++++++++++++++++++++++++++++++++++++++++++++++         ",
"         ........................+++++++++++++++++++++++++++++++++++++++++++++++++++++++++++++++++++++++++++++++++++++++++++++++++++++++++++         ",
"         ........................+++++++++++++++++++++++++++++++++++++++++++++++++++++++++++++++++++++++++++++++++++++++++++++++++++++++++++         ",
"         .................++++++++++++++++++++++++++++++++++++++++++++++++++++++++++++++++++++++++++++++++++++++++++++++++++++++++++++++++++         ",
"         .................++++++++++++++++++++++++++++++++++++++++++++++++++++++++++++++++++++++++++++++++++++++++++++++++++++++++++++++++++         ",
"         .................++++++++++++++++++++++++++++++++++++++++++++++++++++++++++++++++++++++++++++++++++++++++++++++++++++++++++++++++++         ",
"         .................++++++++++++++++++++++++++++++++++++++++++++++++++++++++++++++++++++++++++++++++++++++++++++++++++++++++++++++++++         ",
"         .................++++++++++++++++++++++++++++++++++++++++++++++++++++++++++++++++++++++++++++++++++++++++++++++++++++++++++++++++++         ",
"         ............+++++++++++++++++++++++++++++++++++++++++++++++++++++++++++++++++++++++++++++++++++++++++++++++++++++++++++++++++++++++         ",
"         !++++++++++++++++++++++++++++++++++++++++++++++++++++++++++++++++++++++++++++++++++++++++++++++++++++++++++++++++++++++++++++++++++         ",
"                  +++++++++++++++++++++++++++++++++++++++++++++++++++++++++++++++++++++++++++++++++++++++++++++++++++++++++++++++++                  ",
"                  +++++++++++++++++++++++++++++++++++++++++++++++++++++++++++++++++++++++++++++++++++++++++++++++++++++++++++++++++                  ",
"                  +++++++++++++++++++++++++++++++++++++++++++++++++++++++++++++++++++++++++++++++++++++++++++++++++++++++++++++++++                  ",
"                  +++++++++++++++++++++++++++++++++++++++++++++++++++++++++++++++++++++++++++++++++++++++++++++++++++++++++++++++++                  ",
"                  +++++++++++++++++++++++++++++++++++++++++++++++++++++++++++++++++++++++++++++++++++++++++++++++++++++++++++++++++                  ",
"                  +++++++++++++++++++++++++++++++++++++++++++++++++++++++++++++++++++++++++++++++++++++++++++++++++++++++++++++++++                  ",
"                  +++++++++++++++++++++++++++++++++++++++++++++++++++++++++++++++++++++++++++++++++++++++++++++++++++++++++++++++++                  ",
"                  +++++++++++++++++++++++++++++++++++++++++++++++++++++++++++++++++++++++++++++++++++++++++++++++++++++++++++++++++                  ",
"                  +++++++++++++++++++++++++++++++++++++++++++++++++++++++++++++++++++++++++++++++++++++++++++++++++++++++++++++++++                  ",
"                                                                                                                                                     ",
"                                                                                                                                                     ",
"                                                                                                                                                     ",
"                                                                                                                                                     ",
"                                                                                                                                                     ",
"                                                                                                                                                     ",
"                                                                                                                                                     ",
"                                                                                                                                                     ",
"                                                                                                                                                     "};
