/* XPM */
static xpm_row_t const soap_button_green[] = {
"149 120 23 1",
" 	c #000001",
".	c #79F20F",
"+	c #78BB00",
"@	c #9DDEF9",
"#	c #7DC4F3",
"$	c #85CAF4",
"%	c #96D8F7",
"&	c #96D7F7",
"*	c #7BC3F3",
"=	c #EBE37D",
"-	c #78B7EC",
";	c #94D6F7",
">	c #7FB2E8",
",	c #6FBAF0",
"'	c #79C1F2",
")	c #89ACE2",
"!	c #9FB9EA",
"~	c #7DB2E9",
"{	c #70B9EF",
"]	c #77B6EC",
"^	c #74B7ED",
"/	c #71B9EF",
"(	c #86ADE4",
"                                                                                                                                                     ",
"                                                                                                                                                     ",
"                                                                                                                                                     ",
"                                                                                                                                                     ",
"                                                                                                                                                     ",
"                                                                                                                                                     ",
"                                                                                                                                                     ",
"                                                                                                                                                     ",
"                  ...............................................................................................++++++++++++++++++++                ",
"                  ...............................................................................................++++++++++++++++++++                ",
"                  ...............................................................................................++++++++++++++++++++                ",
"                  ...............................................................................................++++++++++++++++++++                ",
"                  ...............................................................................................++++++++++++++++++++                ",
"                  ...............................................................................................++++++++++++++++++++                ",
"                  ...............................................................................................++++++++++++++++++++                ",
"                  ...............................................................................................++++++++++++++++++++                ",
"                  ............................................................................................+++++++++++++++++++++++                ",
"         .....................................................................................................++++++++++++++++++++++++++++++++       ",
"         .....................................................................................................++++++++++++++++++++++++++++++++       ",
"         .....................................................................................................++++++++++++++++++++++++++++++++       ",
"         .....................................................................................................++++++++++++++++++++++++++++++++       ",
"         .....................................................................................................++++++++++++++++++++++++++++++++       ",
"         .....................................................................................................++++++++++++++++++++++++++++++++       ",
"         ...............................................................................................++++++++++++++++++++++++++++++++++++++       ",
"         ...............................................................................................++++++++++++++++++++++++++++++++++++++       ",
"         ...............................................................................................++++++++++++++++++++++++++++++++++++++       ",
"         ...............................................................................................++++++++++++++++++++++++++++++++++++++       ",
"         ...............................................................................................++++++++++++++++++++++++++++++++++++++       ",
"         ...............................................................................................++++++++++++++++++++++++++++++++++++++       ",
"         ...............................................................................................++++++++++++++++++++++++++++++++++++++       ",
"         .....................................................................................++++++++++++++++++++++++++++++++++++++++++++++++       ",
"         .....................................................................................++++++++++++++++++++++++++++++++++++++++++++++++       ",
"         .....................................................................................++++++++++++++++++++++++++++++++++++++++++++++++       ",
"         .....................................................................................++++++++++++++++++++++++++++++++++++++++++++++++       ",
"         .....................................................................................++++++++++++++++++++++++++++++++++++++++++++++++       ",
"         .....................................................................................++++++++++++++++++++++++++++++++++++++++++++++++       ",
"         .....................................................................................++++++++++++++++++++++++++++++++++++++++++++++++       ",
"         ............................................................................+++++++++++++++++++++++++++++++++++++++++++++++++++++++++       ",
"         ............................................................................+++++++++++++++++++++++++++++++++++++++++++++++++++++++++       ",
"         ............................................................................+++++++++++++++++++++++++++++++++++++++++++++++++++++++++       ",
"         ........................@@@@@@@@@@@@@@@@@@@@@@@@@@@@@@@@@@@@@@@@@@@@@@@@@@@@@@@@@@@@@@@@@@@@@@@@@@@@@@@@@@@@@@@++++++++++++++++++++++       ",
"         ........................@@@@@@@@@@@@@@@@@@@@@@@@@@@@@@@@@@@@@@@@@@@@@@@@@@@@@@@@@@@@@@@@@@@@@@@@@@@@@@@@@@@@@@@++++++++++++++++++++++       ",
"         ........................@@@@@@@@@@@@@@@@@@@@@@@@@@@@@@@@@@@@@@@@@@@@@@@@@@@@@@@@@@@@@@@@@@@@@@@@@@@@@@@@@@@@@@@++++++++++++++++++++++       ",
"         .....................@@@@@@@###############################################################################@@@@@@@+++++++++++++++++++       ",
"         .....................@@@@@@@###############################################################################@@@@@@@+++++++++++++++++++       ",
"         ...................@@@@@@@@@###############################################################################@@@@@@@@@+++++++++++++++++       ",
"         ...................@@@@@@@####@@@@@@@@###########@@@@############@@@@@@###########@@@@##########@@@@@@@@@@###@@@@@@@+++++++++++++++++       ",
"         ...................@@@@@@@####@@@@@@@@###########@@@@############@@@@@@###########@@@@##########@@@@@@@@@@###@@@@@@@+++++++++++++++++       ",
"         ...................@@@@####@@@@@@@@@####@@@@@@@@@@@###$@@@@@@@#####@####@@@@@@@@####@@####@@@@@####@@@@@@@@@####@@@@+++++++++++++++++       ",
"         ...................@@@@####@@@@@@@@@###@@@@@@@@@@@@###@@@@@@@@@####@####@@@@@@@@@###@@###@@@@@@@###@@@@@@@@@@###@@@@+++++++++++++++++       ",
"         ...................@@@@####@@@@@@@@@###@@@@@@@@@@@@###@@@@@@@@@####@####@@@@@@@@@###@@###@@@@@@@###@@@@@@@@@@###@@@@+++++++++++++++++       ",
"         ...................@@@@####@@@@@@@@@###@@@@@@@@@@@@###@@@@@@@@@####@####@@@@@@@@@###@@###@@@@@@@###@@@@@@@@@@###@@@@+++++++++++++++++       ",
"         ...................@@@@####@@@@@@@@@###@@@@@@@@@@@@###@@@@@@@@@####@####@@@@@@@@%###@@###@@@@@@&###@@@@@@@@@@###@@@@+++++++++++++++++       ",
"         ...................@@@@####@@@@@@@@@@@########@@@@@###@@@@@@@@@####@################@@##########@@@@@@@@@@@@@###@@@@+++++++++++++++++       ",
"         ...................@@@@####@@@@@@@@@@@%########@@@@###@@@@@@@@@####@################@@##########@@@@@@@@@@@@@###@@@@+++++++++++++++++       ",
"         ...................@@@@####@@@@@@@@@@@@#########@@@###@@@@@@@@@####@################@@##########@@@@@@@@@@@@@###@@@@+++++++++++++++++       ",
"         ...................@@@@####@@@@@@@@@@@@@@@@@@@###@@###@@@@@@@@@####@####@@@@@@@@@###@@###@@@@@@@@@@@@@@@@@@@@###@@@@+++++++++++++++++       ",
"         ...................@@@@####@@@@@@@@@@@@@@@@@@@###@@###@@@@@@@@@####@####@@@@@@@@@###@@###@@@@@@@@@@@@@@@@@@@@###@@@@+++++++++++++++++       ",
"         ...................@@@@####@@@@@@@@@@@@@@@@@@@###@@###@@@@@@@@@####@####@@@@@@@@@###@@###@@@@@@@@@@@@@@@@@@@@###@@@@+++++++++++++++++       ",
"         ...................@@@@####@@@@@@@@@@@@@@@@@@@###@@###@@@@@@@@@##*#@####@@@@@@@@@###@@###@@@@@@@@@@@@@@@@@@@@###@@@@+++++++++++++++++       ",
"         ...................@@@@@####@@@@@@@@@###########@@@##############*@@####@@@@@@@@@###@@###@@@@@@@@@@@@@@@@@@####@@@@@+++++++++++++++++       ",
"         ..................=@@@@@@@###&@@@@@@###########@@@@@@############@@@####@@@@@@@@@###@@###@@@@@@@@@@@@@@@@@###@@@@@@-+++++++++++++++++       ",
"         ...................@@@@@@@####@@@@@@###########@@@@@@############@@@####@@@@@@@@@###@;###@@@@@@@@@@@@@@@@@###@@@@@@>+++++++++++++++++       ",
"         ...................,,@@@@@##################################################################################@@@@@@,>+++++++++++++++++       ",
"         ...................,,,'@@@@@###############################################################################@@@@@,,,>+++++++++++++++++       ",
"         ...................,,,,@@@@@##############################################################################@@@@@@,,,>+++++++++++++++++       ",
"         ...................,,,,'@@@@@@@@@@@@@@@@@@@@@@@@@@@@@@@@@@@@@@@@@@@@@@@@@@@@@@@@@@@@@@@@@@@@@@@@@@@@@@@@@@@@@@',,,,>+++++++++++++++++       ",
"         ...................,,,,,,'@@@@@@@@@@@@@@@@@@@@@@@@@@@@@@@@@@@@@@@@@@@@@@@@@@@@@@@@@@@@@@@@@@@@@@@@@@@@@@@@@@@@,,,,,>+++++++++++++++++       ",
"         ...................,,,,,,,@@@@@@@@@@@@@@@@@@@@@@@@@@@@@@@@@@@@@@@@@@@@@@@@@@@@@@@@@@@@@@@@@@@@@@@@@@@@@@@@@@@,,,,,,>+++++++++++++++++       ",
"         ...................,,,,,,,,,,,,,,,,,,,,,,,,,,,,,,,,,,,,,,,,,,,,,,,,,,,,,,,,,,,,,,,,,,,,,,,,,,,,,,,,,,,,,,,,,,,,,,,,>+++++++++++++++++       ",
"         ...................,,,,,,,,,,,,,,,,,,,,,,,,,,,,,,,,,,,,,,,,,,,,,,,,,,,,,,,,,,,,,,,,,,,,,,,,,,,,,,,,,,,,,,,,,,,,,,,,>+++++++++++++++++       ",
"         ...................,,,,,,,,,,,,,,,,,,,,,,,,,,,,,,,,,,,,,,,,,,,,,,,,,,,,,,,,,,,,,,,,,,,,,,,,,,,,,,,,,,,,,,,,,,,,,,,,>+++++++++++++++++       ",
"         ...................,,,,,,,,,,,,,,,,,,,,,,,,,,,,,,,,,,,,,,,,,,,,,,,,,,,,,,,,,,,,,,,,,,,,,,,,,,,,,,,,,,,,,,,,,,,,,,,,>+++++++++++++++++       ",
"         ...................,,,,,,,,,,,,,,,,,,,,,,,,,,,,,,,,,,,,,,,,,,,,,,,,,,,,,,,,,,,,,,,,,,,,,,,,,,,,,,,,,,,,,,,,,,,,,,,,>+++++++++++++++++       ",
"         ...................,,,,,,,,,,,,,,,,,,,,,,,,,,,,,,,,,,,,,,,,,,,,,,,,,,,,,,,,,,,,,,,,,,,,,,,,,,,,,,,,,,,,,,,,,,,,,,,,>+++++++++++++++++       ",
"         ...................,,,,,,,,,,,,,,,,,,,,,,,,,,,,,,,,,,,,,,,,,,,,,,,,,,,,,,,,,,,,,,,,,,,,,,,,,,,,,,,,,,,,,,,,,,,,,,,,>+++++++++++++++++       ",
"         ...................,,,,,,,,,,,,,,,,,,,,,,,,,,,,,,,,,,,,,,,,,,,,,,,,,,,,,,,,,,,,,,,,,,,,,,,,,,,,,,,,,,,,,,,,,,,,,,,,>+++++++++++++++++       ",
"         ...................,,,,,,,,,,,,,,,,,,,,,,,,,,,,,,,,,,,,,,,,,,,,,,,,,,,,,,,,,,,,,,,,,,,,,,,,,,,,,,,,,,,,,,,,,,,,,,,,)+++++++++++++++++       ",
"         ...................!,,,,,,,,,,,,,,,,,,,,,,,,,,,,,,,,,,,,,,,,,,,,,,,,,,,,,,,,,,,,,,,,,,,,,,,,,,,,,,,,,,,,,,,,,,,,,~+++++++++++++++++++       ",
"         .....................,,,,,,,,,,,,,,,,,,,,,,,,,,,,,,,,,,,,,,,,,,,,,,,,,,,,,,,,,,,,,,,,,,,,,,,,,,,,,,,,,,,,,,,,,,,,++++++++++++++++++++       ",
"         .....................,,,,,,,,,,,,,,,,,,,,,,,,,,,,,,,,,,,,,,,,,,,,,,,,,,,,,,,,,,,,,,,,,,,,,,,,,,,,,,,,,,,,,,,,,,{]++++++++++++++++++++       ",
"         .......................,,,,,,,,,,,,,,,,,,,,,,,,,,,,,,,,,,,,,,,,,,,,,,,,,,,,,,,,,,,,,,,,,,,,,,,,,,,,,,,,,,,,,,,^++++++++++++++++++++++       ",
"         .......................,,,,,,,,//////////////////////////////////////////////////////////////////////////////{(++++++++++++++++++++++       ",
"         ..............................+++++++++++++++++++++++++++++++++++++++++++++++++++++++++++++++++++++++++++++++++++++++++++++++++++++++       ",
"         ..............................+++++++++++++++++++++++++++++++++++++++++++++++++++++++++++++++++++++++++++++++++++++++++++++++++++++++       ",
"         ..............................+++++++++++++++++++++++++++++++++++++++++++++++++++++++++++++++++++++++++++++++++++++++++++++++++++++++       ",
"         ..............................+++++++++++++++++++++++++++++++++++++++++++++++++++++++++++++++++++++++++++++++++++++++++++++++++++++++       ",
"         ..............................+++++++++++++++++++++++++++++++++++++++++++++++++++++++++++++++++++++++++++++++++++++++++++++++++++++++       ",
"         ........................+++++++++++++++++++++++++++++++++++++++++++++++++++++++++++++++++++++++++++++++++++++++++++++++++++++++++++++       ",
"         ........................+++++++++++++++++++++++++++++++++++++++++++++++++++++++++++++++++++++++++++++++++++++++++++++++++++++++++++++       ",
"         ........................+++++++++++++++++++++++++++++++++++++++++++++++++++++++++++++++++++++++++++++++++++++++++++++++++++++++++++++       ",
"         ........................+++++++++++++++++++++++++++++++++++++++++++++++++++++++++++++++++++++++++++++++++++++++++++++++++++++++++++++       ",
"         ........................+++++++++++++++++++++++++++++++++++++++++++++++++++++++++++++++++++++++++++++++++++++++++++++++++++++++++++++       ",
"         ........................+++++++++++++++++++++++++++++++++++++++++++++++++++++++++++++++++++++++++++++++++++++++++++++++++++++++++++++       ",
"         ........................+++++++++++++++++++++++++++++++++++++++++++++++++++++++++++++++++++++++++++++++++++++++++++++++++++++++++++++       ",
"         .................++++++++++++++++++++++++++++++++++++++++++++++++++++++++++++++++++++++++++++++++++++++++++++++++++++++++++++++++++++       ",
"         .................++++++++++++++++++++++++++++++++++++++++++++++++++++++++++++++++++++++++++++++++++++++++++++++++++++++++++++++++++++       ",
"         .................++++++++++++++++++++++++++++++++++++++++++++++++++++++++++++++++++++++++++++++++++++++++++++++++++++++++++++++++++++       ",
"         .................++++++++++++++++++++++++++++++++++++++++++++++++++++++++++++++++++++++++++++++++++++++++++++++++++++++++++++++++++++       ",
"         .................++++++++++++++++++++++++++++++++++++++++++++++++++++++++++++++++++++++++++++++++++++++++++++++++++++++++++++++++++++       ",
"         .............++++++++++++++++++++++++++++++++++++++++++++++++++++++++++++++++++++++++++++++++++++++++++++++++++++++++++++++++++++++++       ",
"         .............++++++++++++++++++++++++++++++++++++++++++++++++++++++++++++++++++++++++++++++++++++++++++++++++++++++++++++++++++++++++       ",
"         .........++++++++++++++++++++++++++++++++++++++++++++++++++++++++++++++++++++++++++++++++++++++++++++++++++++++++++++++++++++++++++++       ",
"                  ++++++++++++++++++++++++++++++++++++++++++++++++++++++++++++++++++++++++++++++++++++++++++++++++++++++++++++++++++                 ",
"                  ++++++++++++++++++++++++++++++++++++++++++++++++++++++++++++++++++++++++++++++++++++++++++++++++++++++++++++++++++                 ",
"                  ++++++++++++++++++++++++++++++++++++++++++++++++++++++++++++++++++++++++++++++++++++++++++++++++++++++++++++++++++                 ",
"                  ++++++++++++++++++++++++++++++++++++++++++++++++++++++++++++++++++++++++++++++++++++++++++++++++++++++++++++++++++                 ",
"                  ++++++++++++++++++++++++++++++++++++++++++++++++++++++++++++++++++++++++++++++++++++++++++++++++++++++++++++++++++                 ",
"                  ++++++++++++++++++++++++++++++++++++++++++++++++++++++++++++++++++++++++++++++++++++++++++++++++++++++++++++++++++                 ",
"                  ++++++++++++++++++++++++++++++++++++++++++++++++++++++++++++++++++++++++++++++++++++++++++++++++++++++++++++++++++                 ",
"                  ++++++++++++++++++++++++++++++++++++++++++++++++++++++++++++++++++++++++++++++++++++++++++++++++++++++++++++++++++                 ",
"                  ++++++++++++++++++++++++++++++++++++++++++++++++++++++++++++++++++++++++++++++++++++++++++++++++++++++++++++++++++                 ",
"                                                                                                                                                     ",
"                                                                                                                                                     ",
"                                                                                                                                                     ",
"                                                                                                                                                     ",
"                                                                                                                                                     ",
"                                                                                                                                                     ",
"                                                                                                                                                     ",
"                                                                                                                                                     "};
