/* XPM */
static xpm_row_t soap_button_red[] = {
"149 120 24 1",
" 	c #000001",
".	c #EF464C",
"+	c #871A1E",
"@	c #9DDEF9",
"#	c #7DC4F3",
"$	c #85CAF4",
"%	c #96D8F7",
"&	c #96D7F7",
"*	c #7BC3F3",
"=	c #EBE37D",
"-	c #78B7EC",
";	c #EDB16D",
">	c #94D6F7",
",	c #7FB2E8",
"'	c #6FBAF0",
")	c #79C1F2",
"!	c #89ACE2",
"~	c #9FB9EA",
"{	c #7DB2E9",
"]	c #70B9EF",
"^	c #77B6EC",
"/	c #74B7ED",
"(	c #71B9EF",
"_	c #86ADE4",
"                                                                                                                                                     ",
"                                                                                                                                                     ",
"                                                                                                                                                     ",
"                                                                                                                                                     ",
"                                                                                                                                                     ",
"                                                                                                                                                     ",
"                                                                                                                                                     ",
"                                                                                                                                                     ",
"                  ...............................................................................................++++++++++++++++++++                ",
"                  ...............................................................................................++++++++++++++++++++                ",
"                  ...............................................................................................++++++++++++++++++++                ",
"                  ...............................................................................................++++++++++++++++++++                ",
"                  ...............................................................................................++++++++++++++++++++                ",
"                  ...............................................................................................++++++++++++++++++++                ",
"                  ...............................................................................................++++++++++++++++++++                ",
"                  ...............................................................................................++++++++++++++++++++                ",
"                  ............................................................................................+++++++++++++++++++++++                ",
"         .....................................................................................................++++++++++++++++++++++++++++++++       ",
"         .....................................................................................................++++++++++++++++++++++++++++++++       ",
"         .....................................................................................................++++++++++++++++++++++++++++++++       ",
"         .....................................................................................................++++++++++++++++++++++++++++++++       ",
"         .....................................................................................................++++++++++++++++++++++++++++++++       ",
"         .....................................................................................................++++++++++++++++++++++++++++++++       ",
"         ...............................................................................................++++++++++++++++++++++++++++++++++++++       ",
"         ...............................................................................................++++++++++++++++++++++++++++++++++++++       ",
"         ...............................................................................................++++++++++++++++++++++++++++++++++++++       ",
"         ...............................................................................................++++++++++++++++++++++++++++++++++++++       ",
"         ...............................................................................................++++++++++++++++++++++++++++++++++++++       ",
"         ...............................................................................................++++++++++++++++++++++++++++++++++++++       ",
"         ...............................................................................................++++++++++++++++++++++++++++++++++++++       ",
"         .....................................................................................++++++++++++++++++++++++++++++++++++++++++++++++       ",
"         .....................................................................................++++++++++++++++++++++++++++++++++++++++++++++++       ",
"         .....................................................................................++++++++++++++++++++++++++++++++++++++++++++++++       ",
"         .....................................................................................++++++++++++++++++++++++++++++++++++++++++++++++       ",
"         .....................................................................................++++++++++++++++++++++++++++++++++++++++++++++++       ",
"         .....................................................................................++++++++++++++++++++++++++++++++++++++++++++++++       ",
"         .....................................................................................++++++++++++++++++++++++++++++++++++++++++++++++       ",
"         ............................................................................+++++++++++++++++++++++++++++++++++++++++++++++++++++++++       ",
"         ............................................................................+++++++++++++++++++++++++++++++++++++++++++++++++++++++++       ",
"         ............................................................................+++++++++++++++++++++++++++++++++++++++++++++++++++++++++       ",
"         ........................@@@@@@@@@@@@@@@@@@@@@@@@@@@@@@@@@@@@@@@@@@@@@@@@@@@@@@@@@@@@@@@@@@@@@@@@@@@@@@@@@@@@@@@++++++++++++++++++++++       ",
"         ........................@@@@@@@@@@@@@@@@@@@@@@@@@@@@@@@@@@@@@@@@@@@@@@@@@@@@@@@@@@@@@@@@@@@@@@@@@@@@@@@@@@@@@@@++++++++++++++++++++++       ",
"         ........................@@@@@@@@@@@@@@@@@@@@@@@@@@@@@@@@@@@@@@@@@@@@@@@@@@@@@@@@@@@@@@@@@@@@@@@@@@@@@@@@@@@@@@@++++++++++++++++++++++       ",
"         .....................@@@@@@@###############################################################################@@@@@@@+++++++++++++++++++       ",
"         .....................@@@@@@@###############################################################################@@@@@@@+++++++++++++++++++       ",
"         ...................@@@@@@@@@###############################################################################@@@@@@@@@+++++++++++++++++       ",
"         ...................@@@@@@@####@@@@@@@@###########@@@@############@@@@@@###########@@@@##########@@@@@@@@@@###@@@@@@@+++++++++++++++++       ",
"         ...................@@@@@@@####@@@@@@@@###########@@@@############@@@@@@###########@@@@##########@@@@@@@@@@###@@@@@@@+++++++++++++++++       ",
"         ...................@@@@####@@@@@@@@@####@@@@@@@@@@@###$@@@@@@@#####@####@@@@@@@@####@@####@@@@@####@@@@@@@@@####@@@@+++++++++++++++++       ",
"         ...................@@@@####@@@@@@@@@###@@@@@@@@@@@@###@@@@@@@@@####@####@@@@@@@@@###@@###@@@@@@@###@@@@@@@@@@###@@@@+++++++++++++++++       ",
"         ...................@@@@####@@@@@@@@@###@@@@@@@@@@@@###@@@@@@@@@####@####@@@@@@@@@###@@###@@@@@@@###@@@@@@@@@@###@@@@+++++++++++++++++       ",
"         ...................@@@@####@@@@@@@@@###@@@@@@@@@@@@###@@@@@@@@@####@####@@@@@@@@@###@@###@@@@@@@###@@@@@@@@@@###@@@@+++++++++++++++++       ",
"         ...................@@@@####@@@@@@@@@###@@@@@@@@@@@@###@@@@@@@@@####@####@@@@@@@@%###@@###@@@@@@&###@@@@@@@@@@###@@@@+++++++++++++++++       ",
"         ...................@@@@####@@@@@@@@@@@########@@@@@###@@@@@@@@@####@################@@##########@@@@@@@@@@@@@###@@@@+++++++++++++++++       ",
"         ...................@@@@####@@@@@@@@@@@%########@@@@###@@@@@@@@@####@################@@##########@@@@@@@@@@@@@###@@@@+++++++++++++++++       ",
"         ...................@@@@####@@@@@@@@@@@@#########@@@###@@@@@@@@@####@################@@##########@@@@@@@@@@@@@###@@@@+++++++++++++++++       ",
"         ...................@@@@####@@@@@@@@@@@@@@@@@@@###@@###@@@@@@@@@####@####@@@@@@@@@###@@###@@@@@@@@@@@@@@@@@@@@###@@@@+++++++++++++++++       ",
"         ...................@@@@####@@@@@@@@@@@@@@@@@@@###@@###@@@@@@@@@####@####@@@@@@@@@###@@###@@@@@@@@@@@@@@@@@@@@###@@@@+++++++++++++++++       ",
"         ...................@@@@####@@@@@@@@@@@@@@@@@@@###@@###@@@@@@@@@####@####@@@@@@@@@###@@###@@@@@@@@@@@@@@@@@@@@###@@@@+++++++++++++++++       ",
"         ...................@@@@####@@@@@@@@@@@@@@@@@@@###@@###@@@@@@@@@##*#@####@@@@@@@@@###@@###@@@@@@@@@@@@@@@@@@@@###@@@@+++++++++++++++++       ",
"         ...................@@@@@####@@@@@@@@@###########@@@##############*@@####@@@@@@@@@###@@###@@@@@@@@@@@@@@@@@@####@@@@@+++++++++++++++++       ",
"         ..................=@@@@@@@###&@@@@@@###########@@@@@@############@@@####@@@@@@@@@###@@###@@@@@@@@@@@@@@@@@###@@@@@@-;++++++++++++++++       ",
"         ...................@@@@@@@####@@@@@@###########@@@@@@############@@@####@@@@@@@@@###@>###@@@@@@@@@@@@@@@@@###@@@@@@,+++++++++++++++++       ",
"         ...................''@@@@@##################################################################################@@@@@@',+++++++++++++++++       ",
"         ...................''')@@@@@###############################################################################@@@@@''',+++++++++++++++++       ",
"         ...................''''@@@@@##############################################################################@@@@@@''',+++++++++++++++++       ",
"         ...................'''')@@@@@@@@@@@@@@@@@@@@@@@@@@@@@@@@@@@@@@@@@@@@@@@@@@@@@@@@@@@@@@@@@@@@@@@@@@@@@@@@@@@@@@)'''',+++++++++++++++++       ",
"         ...................'''''')@@@@@@@@@@@@@@@@@@@@@@@@@@@@@@@@@@@@@@@@@@@@@@@@@@@@@@@@@@@@@@@@@@@@@@@@@@@@@@@@@@@@''''',+++++++++++++++++       ",
"         ...................'''''''@@@@@@@@@@@@@@@@@@@@@@@@@@@@@@@@@@@@@@@@@@@@@@@@@@@@@@@@@@@@@@@@@@@@@@@@@@@@@@@@@@@'''''',+++++++++++++++++       ",
"         ...................'''''''''''''''''''''''''''''''''''''''''''''''''''''''''''''''''''''''''''''''''''''''''''''''',+++++++++++++++++       ",
"         ...................'''''''''''''''''''''''''''''''''''''''''''''''''''''''''''''''''''''''''''''''''''''''''''''''',+++++++++++++++++       ",
"         ...................'''''''''''''''''''''''''''''''''''''''''''''''''''''''''''''''''''''''''''''''''''''''''''''''',+++++++++++++++++       ",
"         ...................'''''''''''''''''''''''''''''''''''''''''''''''''''''''''''''''''''''''''''''''''''''''''''''''',+++++++++++++++++       ",
"         ...................'''''''''''''''''''''''''''''''''''''''''''''''''''''''''''''''''''''''''''''''''''''''''''''''',+++++++++++++++++       ",
"         ...................'''''''''''''''''''''''''''''''''''''''''''''''''''''''''''''''''''''''''''''''''''''''''''''''',+++++++++++++++++       ",
"         ...................'''''''''''''''''''''''''''''''''''''''''''''''''''''''''''''''''''''''''''''''''''''''''''''''',+++++++++++++++++       ",
"         ...................'''''''''''''''''''''''''''''''''''''''''''''''''''''''''''''''''''''''''''''''''''''''''''''''',+++++++++++++++++       ",
"         ...................''''''''''''''''''''''''''''''''''''''''''''''''''''''''''''''''''''''''''''''''''''''''''''''''!+++++++++++++++++       ",
"         ...................~'''''''''''''''''''''''''''''''''''''''''''''''''''''''''''''''''''''''''''''''''''''''''''''{+++++++++++++++++++       ",
"         .....................''''''''''''''''''''''''''''''''''''''''''''''''''''''''''''''''''''''''''''''''''''''''''''++++++++++++++++++++       ",
"         .....................'''''''''''''''''''''''''''''''''''''''''''''''''''''''''''''''''''''''''''''''''''''''''']^++++++++++++++++++++       ",
"         .......................'''''''''''''''''''''''''''''''''''''''''''''''''''''''''''''''''''''''''''''''''''''''/++++++++++++++++++++++       ",
"         .......................''''''''((((((((((((((((((((((((((((((((((((((((((((((((((((((((((((((((((((((((((((((]_++++++++++++++++++++++       ",
"         ..............................+++++++++++++++++++++++++++++++++++++++++++++++++++++++++++++++++++++++++++++++++++++++++++++++++++++++       ",
"         ..............................+++++++++++++++++++++++++++++++++++++++++++++++++++++++++++++++++++++++++++++++++++++++++++++++++++++++       ",
"         ..............................+++++++++++++++++++++++++++++++++++++++++++++++++++++++++++++++++++++++++++++++++++++++++++++++++++++++       ",
"         ..............................+++++++++++++++++++++++++++++++++++++++++++++++++++++++++++++++++++++++++++++++++++++++++++++++++++++++       ",
"         ..............................+++++++++++++++++++++++++++++++++++++++++++++++++++++++++++++++++++++++++++++++++++++++++++++++++++++++       ",
"         ........................+++++++++++++++++++++++++++++++++++++++++++++++++++++++++++++++++++++++++++++++++++++++++++++++++++++++++++++       ",
"         ........................+++++++++++++++++++++++++++++++++++++++++++++++++++++++++++++++++++++++++++++++++++++++++++++++++++++++++++++       ",
"         ........................+++++++++++++++++++++++++++++++++++++++++++++++++++++++++++++++++++++++++++++++++++++++++++++++++++++++++++++       ",
"         ........................+++++++++++++++++++++++++++++++++++++++++++++++++++++++++++++++++++++++++++++++++++++++++++++++++++++++++++++       ",
"         ........................+++++++++++++++++++++++++++++++++++++++++++++++++++++++++++++++++++++++++++++++++++++++++++++++++++++++++++++       ",
"         ........................+++++++++++++++++++++++++++++++++++++++++++++++++++++++++++++++++++++++++++++++++++++++++++++++++++++++++++++       ",
"         ........................+++++++++++++++++++++++++++++++++++++++++++++++++++++++++++++++++++++++++++++++++++++++++++++++++++++++++++++       ",
"         .................++++++++++++++++++++++++++++++++++++++++++++++++++++++++++++++++++++++++++++++++++++++++++++++++++++++++++++++++++++       ",
"         .................++++++++++++++++++++++++++++++++++++++++++++++++++++++++++++++++++++++++++++++++++++++++++++++++++++++++++++++++++++       ",
"         .................++++++++++++++++++++++++++++++++++++++++++++++++++++++++++++++++++++++++++++++++++++++++++++++++++++++++++++++++++++       ",
"         .................++++++++++++++++++++++++++++++++++++++++++++++++++++++++++++++++++++++++++++++++++++++++++++++++++++++++++++++++++++       ",
"         .................++++++++++++++++++++++++++++++++++++++++++++++++++++++++++++++++++++++++++++++++++++++++++++++++++++++++++++++++++++       ",
"         .............++++++++++++++++++++++++++++++++++++++++++++++++++++++++++++++++++++++++++++++++++++++++++++++++++++++++++++++++++++++++       ",
"         .............++++++++++++++++++++++++++++++++++++++++++++++++++++++++++++++++++++++++++++++++++++++++++++++++++++++++++++++++++++++++       ",
"         .........++++++++++++++++++++++++++++++++++++++++++++++++++++++++++++++++++++++++++++++++++++++++++++++++++++++++++++++++++++++++++++       ",
"                  ++++++++++++++++++++++++++++++++++++++++++++++++++++++++++++++++++++++++++++++++++++++++++++++++++++++++++++++++++                 ",
"                  ++++++++++++++++++++++++++++++++++++++++++++++++++++++++++++++++++++++++++++++++++++++++++++++++++++++++++++++++++                 ",
"                  ++++++++++++++++++++++++++++++++++++++++++++++++++++++++++++++++++++++++++++++++++++++++++++++++++++++++++++++++++                 ",
"                  ++++++++++++++++++++++++++++++++++++++++++++++++++++++++++++++++++++++++++++++++++++++++++++++++++++++++++++++++++                 ",
"                  ++++++++++++++++++++++++++++++++++++++++++++++++++++++++++++++++++++++++++++++++++++++++++++++++++++++++++++++++++                 ",
"                  ++++++++++++++++++++++++++++++++++++++++++++++++++++++++++++++++++++++++++++++++++++++++++++++++++++++++++++++++++                 ",
"                  ++++++++++++++++++++++++++++++++++++++++++++++++++++++++++++++++++++++++++++++++++++++++++++++++++++++++++++++++++                 ",
"                  ++++++++++++++++++++++++++++++++++++++++++++++++++++++++++++++++++++++++++++++++++++++++++++++++++++++++++++++++++                 ",
"                  ++++++++++++++++++++++++++++++++++++++++++++++++++++++++++++++++++++++++++++++++++++++++++++++++++++++++++++++++++                 ",
"                                                                                                                                                     ",
"                                                                                                                                                     ",
"                                                                                                                                                     ",
"                                                                                                                                                     ",
"                                                                                                                                                     ",
"                                                                                                                                                     ",
"                                                                                                                                                     ",
"                                                                                                                                                     "};
